<svg xmlns="http://www.w3.org/2000/svg" xmlns:xlink="http://www.w3.org/1999/xlink" width="169" height="52"><defs><clipPath id="b"><use xlink:href="#a" fill-rule="evenodd" clip-rule="evenodd"/></clipPath><path id="a" d="M168 0v51.724H0V0h168Z"/></defs><g clip-path="url(#b)"><path fill="none" d="M168 0v51.724H0V0h168Z"/><path fill="#F58220" fill-rule="evenodd" d="m46.388 8.795-2.728-7.49-20.642 7.49H0v22.091h23.514l2.74 7.49 20.63-7.49h121.129V8.795H46.388Zm-6.93 23.552a13.154 13.154 0 0 1-10.164-.456c-3.184-1.5-5.598-4.15-6.76-7.45v.012-.026.013a13.345 13.345 0 0 1-.847-4.645c0-1.88.404-3.732 1.2-5.494 1.475-3.249 4.163-5.728 7.568-6.994 6.877-2.44 14.471 1.11 16.924 7.908 1.253 3.392 1.11 7.02-.391 10.269a13.19 13.19 0 0 1-7.516 6.863h-.013Zm111.435-3.718-3.366 1.122-1.879-5.428h-6.551l-2.257 5.428-3.184-1.122 7.294-18.15h3.184l6.733 18.15h.026Zm-35.753.743h-3.549l.183-18.346 3.184-1.122 8.977 14.601-.183-14.027h3.55l-.183 18.15-3.549 1.123-8.612-14.419h-.183l.365 14.04Zm-11.417-18.907-.183 18.907h-3.549l.183-18.907h3.562-.013Zm-10.856 9.356c.026 5.663-4.763 9.486-9.735 9.538h-6.55l.196-18.907h6.172c5.976-.078 9.943 3.64 9.916 9.356v.013Zm-22.079 8.612-3.562 1.305-5.232-7.294c-.327-.483-.731-.679-1.318-.744h-1.122v7.672H55.99l.183-18.907h5.99c4.605-.039 6.458 2.427 6.55 5.428-.092 2.401-1.54 4.124-3.745 4.867l5.806 7.673h.013Z"/><path fill="#FFF" fill-rule="evenodd" d="M47.366 15.215C44.913 8.416 37.32 4.867 30.442 7.307c-3.405 1.266-6.093 3.745-7.568 6.994a13.235 13.235 0 0 0-1.2 5.494c0 1.552.287 3.131.848 4.645a13.008 13.008 0 0 0 6.759 7.45c3.223 1.514 6.837 1.684 10.165.457a13.19 13.19 0 0 0 7.516-6.863c1.5-3.236 1.644-6.877.391-10.27h.013ZM43.4 23.814a9.335 9.335 0 0 1-5.284 4.828 9.256 9.256 0 0 1-7.15-.327c-2.232-1.056-3.928-2.91-4.738-5.219v-.026c-.887-2.336-.808-4.88.222-7.125 1.044-2.296 2.936-4.045 5.337-4.932 4.815-1.71 10.152.783 11.874 5.559.888 2.414.796 4.971-.26 7.255v-.013Z"/><path fill="#FFF" d="M22.522 24.453v-.026.026Z"/><path fill="#FFF" fill-rule="evenodd" d="m123.57 29.75 3.549-1.122.183-18.15h-3.55l.183 14.027-8.977-14.601-3.184 1.135-.183 18.333h3.549l-.365-14.04h.183l8.612 14.419ZM68.727 15.906c-.092-3.014-1.945-5.467-6.55-5.428h-5.99l-.183 18.907h3.563v-7.672h1.122c.587.078.991.26 1.318.744l5.232 7.294 3.562-1.305-5.806-7.673c2.205-.744 3.653-2.466 3.745-4.867h-.013Zm-6.93 2.988h-2.06v-5.61h2.06c1.723-.04 3.146.9 3.185 2.622-.04 2.532-2.114 3.001-3.184 2.988ZM133.669 28.628l3.184 1.123 2.258-5.428h6.55l1.879 5.428 3.366-1.123-6.733-18.15h-3.183l-7.295 18.15h-.026Zm11.039-7.111h-4.684l2.44-7.49 2.244 7.49ZM76.778 10.478l-.196 18.907h6.55c4.972-.065 9.76-3.888 9.734-9.538.027-5.715-3.94-9.434-9.916-9.356h-6.172v-.013Zm12.54 9.173c-.079 4.293-2.845 6.668-6.93 6.733h-2.244V13.466h2.988c3.654-.052 6.094 2.675 6.172 6.172l.013.013ZM103.54 29.372l.183-18.894h-3.562l-.183 18.894h3.562Z"/><path fill="#F58220" d="M61.798 13.283h-2.062v5.611h2.062c1.07.013 3.145-.443 3.184-2.988-.04-1.722-1.462-2.662-3.184-2.623ZM80.144 26.384h2.244c4.085-.078 6.838-2.44 6.93-6.733-.079-3.51-2.52-6.237-6.173-6.172h-2.988v12.918l-.013-.013Z"/><path fill="#F58220" fill-rule="evenodd" d="m144.708 21.517-2.244-7.49-2.427 7.49h4.671Z"/><path fill="#F58220" d="M31.786 11.013c-2.4.887-4.293 2.636-5.337 4.932-1.03 2.258-1.109 4.79-.248 7.125v.026a9.202 9.202 0 0 0 4.75 5.22c2.27 1.07 4.789 1.174 7.15.326a9.335 9.335 0 0 0 5.285-4.828c1.057-2.27 1.149-4.841.261-7.255-1.722-4.79-7.059-7.268-11.874-5.56l.013.014Z"/><path fill="#5D6164" fill-rule="evenodd" d="M59.736 44h-.783v-.34c-.443.314-.978.47-1.605.47-1.004 0-1.5-.47-1.5-1.422v-.183c0-.613.182-1.03.56-1.24.38-.208.953-.313 1.75-.313h.743v-.365c0-.444-.065-.73-.209-.861-.143-.13-.47-.196-.965-.196-.405 0-.927.04-1.553.105v-.588c.104-.039.326-.091.64-.143.313-.052.639-.078.978-.078.404 0 .744.039 1.005.104.26.065.456.183.6.352.13.157.222.34.274.535.052.196.065.457.065.757V44Zm-.822-.914v-1.5h-.744c-.56 0-.952.052-1.16.182-.223.118-.327.366-.327.757v.248c0 .274.078.457.222.561.143.105.352.157.626.157s.522-.04.796-.13c.261-.092.47-.183.613-.275h-.026Z"/><path fill="#5D6164" d="M66.965 42.277c0 .6-.183 1.057-.561 1.37-.378.314-.94.47-1.683.47-.796 0-1.449-.065-1.931-.195v-.653c.665.078 1.318.117 1.93.117.47 0 .823-.09 1.045-.26.222-.183.339-.457.339-.849 0-.274-.065-.495-.196-.678-.13-.183-.378-.34-.73-.496l-1.162-.522c-.47-.209-.822-.457-1.057-.744-.222-.274-.34-.652-.34-1.096 0-1.096.745-1.644 2.22-1.644.782 0 1.409.065 1.878.183v.665a17.353 17.353 0 0 0-1.84-.117c-.47 0-.822.065-1.057.209-.221.13-.339.378-.339.704 0 .274.065.483.196.653.13.17.365.326.718.482l1.174.51c.483.221.848.47 1.07.756.222.287.34.666.34 1.122l-.014.013Z"/><path fill="#5D6164" fill-rule="evenodd" d="M72.25 41.847c0 .73-.183 1.305-.548 1.683-.366.391-.9.587-1.605.587s-1.227-.196-1.592-.587c-.365-.392-.548-.953-.548-1.683v-.731c0-.73.183-1.305.548-1.683.365-.392.9-.587 1.592-.587.691 0 1.24.195 1.605.587.365.391.548.952.548 1.683v.73Zm-.822 0v-.73c0-.549-.105-.94-.313-1.188-.21-.248-.548-.366-1.005-.366-.457 0-.796.118-1.005.366-.209.248-.313.639-.313 1.187v.73c0 .549.104.94.313 1.188.209.248.548.366 1.005.366.457 0 .796-.118 1.005-.366.208-.248.313-.64.313-1.187ZM77.521 41.677c0 .47-.052.874-.156 1.2-.105.327-.261.588-.457.757a1.7 1.7 0 0 1-.665.379 2.775 2.775 0 0 1-.849.117c-.378 0-.756-.052-1.122-.143v1.93h-.809v-6.941h.783v.34a2.47 2.47 0 0 1 1.462-.47c.6 0 1.043.182 1.357.548.313.365.456.965.456 1.787v.496Zm-.809 0v-.496c0-.6-.091-1.017-.274-1.252-.182-.235-.47-.366-.86-.366-.366 0-.797.13-1.306.379v3.353c.457.091.835.144 1.122.144.444 0 .77-.118.992-.366.222-.234.326-.704.326-1.396Z"/><path fill="#5D6164" d="M81.319 39.576c-.327 0-.653.04-.992.118-.326.078-.6.182-.796.313V44h-.81v-5.024h.81v.404c.457-.352 1.044-.535 1.787-.535v.731Z"/><path fill="#5D6164" fill-rule="evenodd" d="M85.664 44h-.783v-.34c-.444.314-.979.47-1.605.47-1.005 0-1.5-.47-1.5-1.422v-.183c0-.613.182-1.03.56-1.24.379-.208.953-.313 1.749-.313h.744v-.365c0-.444-.066-.73-.21-.861-.143-.13-.469-.196-.965-.196-.404 0-.926.04-1.553.105v-.588c.105-.039.327-.091.64-.143.313-.052.64-.078.978-.078.405 0 .744.039 1.005.104.261.065.457.183.6.352.13.157.222.34.274.535.053.196.066.457.066.757V44Zm-.822-.914v-1.5h-.744c-.561 0-.953.052-1.162.182-.221.118-.326.366-.326.757v.248c0 .274.079.457.222.561.144.105.353.157.627.157.273 0 .521-.04.795-.13.261-.092.47-.183.614-.275h-.026Z"/><path fill="#5D6164" d="M92.88 42.277c0 .6-.183 1.057-.562 1.37-.378.314-.94.47-1.683.47-.796 0-1.448-.065-1.931-.195v-.653c.665.078 1.318.117 1.931.117.47 0 .822-.09 1.044-.26.222-.183.34-.457.34-.849 0-.274-.066-.495-.196-.678-.13-.183-.379-.34-.731-.496l-1.162-.522c-.47-.209-.822-.457-1.056-.744-.222-.274-.34-.652-.34-1.096 0-1.096.744-1.644 2.219-1.644.782 0 1.409.065 1.879.183v.665a17.353 17.353 0 0 0-1.84-.117c-.47 0-.822.065-1.057.209-.222.13-.34.378-.34.704 0 .274.066.483.196.653.13.17.366.326.718.482l1.174.51c.483.221.849.47 1.07.756.222.287.34.666.34 1.122l-.014.013ZM96.703 43.987c-.274.091-.588.13-.927.13-.456 0-.783-.091-.965-.287-.183-.183-.274-.522-.274-.992v-3.184l-1.018-.078v-.613h1.018v-1.305h.822v1.305h1.344v.678h-1.344V42.8c0 .287.026.47.078.548.052.078.196.118.43.118.288 0 .575-.013.836-.053V43.988Z"/><path fill="#5D6164" fill-rule="evenodd" d="M101.622 41.782h-3.458v.104c0 .248.013.456.04.613.025.157.09.313.195.47.091.157.248.26.457.34.209.077.483.104.822.104.613 0 1.2-.053 1.748-.144v.652c-.509.13-1.109.196-1.787.196-.862 0-1.462-.196-1.801-.574-.34-.378-.509-1.005-.509-1.84v-.378c0-.796.183-1.41.535-1.84.352-.43.887-.64 1.592-.64 1.435 0 2.153.862 2.153 2.571v.366h.013Zm-.848-.679v-.091c0-.144 0-.274-.026-.392-.026-.117-.052-.248-.105-.378a1.052 1.052 0 0 0-.208-.352 1.051 1.051 0 0 0-.379-.235 1.632 1.632 0 0 0-.587-.092c-.874 0-1.305.483-1.305 1.462v.091h2.61v-.013Z"/><path fill="#5D6164" d="M105.419 39.576c-.326 0-.652.04-.992.118-.326.078-.6.182-.795.313V44h-.809v-5.024h.809v.404c.456-.352 1.043-.535 1.787-.535v.731Z"/><path fill="#5D6164" fill-rule="evenodd" d="M107.155 38.037h-.835v-1.11h.835v1.11Zm0 5.95h-.822v-5.024h.822v5.024ZM112.244 44h-.783v-.34c-.444.314-.979.47-1.605.47-1.005 0-1.501-.47-1.501-1.422v-.183c0-.613.183-1.03.561-1.24.379-.208.953-.313 1.749-.313h.743v-.365c0-.444-.065-.73-.208-.861-.144-.13-.47-.196-.966-.196-.404 0-.926.04-1.553.105v-.588a4.1 4.1 0 0 1 .64-.143c.313-.052.639-.078.978-.078.405 0 .744.039 1.005.104.261.065.457.183.6.352.131.157.222.34.274.535.052.196.066.457.066.757V44Zm-.822-.914v-1.5h-.744c-.561 0-.953.052-1.162.182-.221.118-.326.366-.326.757v.248c0 .274.078.457.222.561.144.105.352.157.626.157s.522-.04.796-.13c.261-.092.47-.183.614-.275h-.026Z"/><path fill="#5D6164" d="M118.572 43.947c-.365.118-.848.17-1.435.17-.679 0-1.175-.196-1.514-.587-.326-.392-.496-.953-.496-1.683v-.757c0-1.5.666-2.258 2.01-2.258.587 0 1.07.053 1.435.17v.626a12.527 12.527 0 0 0-1.318-.09c-.443 0-.77.104-.978.338-.222.222-.327.627-.327 1.214v.757c0 .587.105.991.327 1.226.221.222.548.34.978.34.287 0 .731-.027 1.318-.092v.627Z"/><path fill="#5D6164" fill-rule="evenodd" d="M123.622 41.847c0 .73-.183 1.305-.548 1.683-.365.391-.9.587-1.605.587s-1.227-.196-1.592-.587c-.365-.392-.548-.953-.548-1.683v-.731c0-.73.183-1.305.548-1.683.365-.392.9-.587 1.592-.587.691 0 1.24.195 1.605.587.365.391.548.952.548 1.683v.73Zm-.822 0v-.73c0-.549-.105-.94-.313-1.188-.209-.248-.548-.366-1.005-.366-.457 0-.796.118-1.005.366-.209.248-.313.639-.313 1.187v.73c0 .549.104.94.313 1.188.209.248.548.366 1.005.366.457 0 .796-.118 1.005-.366.208-.248.313-.64.313-1.187Z"/><path fill="#5D6164" d="M131.268 44h-.822V40.28c0-.078-.013-.183-.039-.287-.026-.118-.065-.196-.117-.235a.713.713 0 0 0-.222-.13.982.982 0 0 0-.365-.053c-.366 0-.783.144-1.266.418.026.156.039.391.039.691v3.328h-.822v-3.719c0-.078-.013-.183-.039-.287-.026-.117-.052-.196-.105-.235a.635.635 0 0 0-.208-.13.848.848 0 0 0-.34-.053c-.365 0-.796.144-1.305.444v4.006h-.809v-5.024h.809v.392c.47-.353.979-.522 1.501-.522.522 0 .9.182 1.109.535.548-.366 1.07-.535 1.553-.535.274 0 .522.039.718.117.195.078.339.183.43.287.092.105.17.261.222.444.052.196.078.352.091.47v3.823l-.013-.026Z"/><path fill="#5D6164" fill-rule="evenodd" d="M136.71 41.677c0 .47-.053.874-.157 1.2-.104.327-.261.588-.457.757-.195.183-.417.3-.665.379a2.775 2.775 0 0 1-.848.117 4.65 4.65 0 0 1-1.123-.143v1.93h-.809v-6.941h.783v.34c.444-.314.927-.47 1.462-.47.6 0 1.044.182 1.357.548.313.365.457.965.457 1.787v.496Zm-.809 0v-.496c0-.6-.092-1.017-.274-1.252-.183-.235-.47-.366-.862-.366-.365 0-.796.13-1.305.379v3.353c.457.091.836.144 1.123.144.443 0 .769-.118.991-.366.222-.234.327-.704.327-1.396ZM141.551 44h-.783v-.34c-.444.314-.979.47-1.605.47-1.005 0-1.501-.47-1.501-1.422v-.183c0-.613.183-1.03.561-1.24.379-.208.953-.313 1.749-.313h.743v-.365c0-.444-.065-.73-.208-.861-.144-.13-.47-.196-.966-.196-.404 0-.926.04-1.553.105v-.588a4.13 4.13 0 0 1 .64-.143c.313-.052.639-.078.978-.078.405 0 .744.039 1.005.104.261.065.457.183.6.352.131.157.222.34.274.535.053.196.066.457.066.757V44Zm-.822-.914v-1.5h-.744c-.561 0-.953.052-1.162.182-.221.118-.326.366-.326.757v.248c0 .274.079.457.222.561.144.105.352.157.626.157s.522-.04.796-.13c.261-.092.47-.183.614-.275h-.026Z"/><path fill="#5D6164" d="M146.953 44h-.822v-3.21c0-.47-.053-.796-.17-.979-.117-.17-.339-.26-.665-.26-.366 0-.901.143-1.579.443V44h-.809v-5.024h.809v.392c.678-.353 1.226-.523 1.67-.523.626 0 1.044.157 1.253.47.208.314.313.81.313 1.475V44ZM152.198 38.976l-1.905 5.467a6.478 6.478 0 0 1-.261.666c-.078.17-.183.326-.313.483-.13.156-.287.274-.47.339a1.95 1.95 0 0 1-.652.104 4.46 4.46 0 0 1-.979-.091v-.626c.352.026.666.039.953.039.235 0 .404-.066.522-.196.117-.13.248-.392.391-.796l.131-.365-1.945-5.024h.901l1.018 2.819c.078.208.208.652.417 1.33.104-.443.235-.887.378-1.344l.927-2.818h.874l.013.013Z"/></g></svg>